<svg width="359" height="108" viewBox="0 0 359 108" fill="none" xmlns="http://www.w3.org/2000/svg">
<path d="M30.75 17.02C28.43 22.05 25.4 30.82 21.66 43.33H39.75C35.88 30.37 32.88 21.6 30.76 17.02M47.29 70.02L43.23 55.13H18.28C16.93 59.64 15.57 64.61 14.22 70.02H0C7.74 41.72 15.57 19.15 23.5 2.32001H37.91C46.1 19.67 53.96 42.23 61.51 70.02H47.29Z" fill="#264A9F"/>
<path d="M77.94 59.18C79.68 59.83 81.68 60.15 83.94 60.15C92.39 60.15 96.61 55.12 96.61 45.06C96.61 35 92.42 30.46 84.04 30.46C82.17 30.46 80.14 30.94 77.95 31.91V59.18H77.94ZM110.15 44.58C110.15 52.77 107.84 59.25 103.23 64.02C98.62 68.79 92.38 71.18 84.52 71.18C75.62 71.18 68.98 70.02 64.6 67.7V0.680023L77.95 0V20.6C79.95 19.83 82.37 19.44 85.2 19.44C92.74 19.44 98.79 21.67 103.33 26.11C107.88 30.56 110.15 36.72 110.15 44.58Z" fill="#264A9F"/>
<path d="M115.56 23.69C121.23 20.85 128 19.44 135.87 19.44C139.35 19.44 142.25 19.73 144.57 20.31L142.64 31.24C141.16 30.73 139.25 30.47 136.93 30.47C133.9 30.47 131.22 31.02 128.9 32.11V70.02H115.55V23.69H115.56Z" fill="#264A9F"/>
<path d="M165.37 61.6C168.21 61.6 170.46 61.15 172.14 60.25V49.9C169.75 49.38 167.47 49.13 165.27 49.13C159.98 49.13 157.34 51.23 157.34 55.42C157.34 59.61 160.02 61.61 165.37 61.61M185.1 66.92C179.55 69.76 172.53 71.18 164.02 71.18C157.64 71.18 152.72 69.78 149.27 66.97C145.82 64.17 144.1 60.51 144.1 55.99C144.1 51.47 145.87 47.58 149.42 44.87C152.97 42.16 157.67 40.78 163.54 40.71C166.06 40.71 168.92 40.97 172.15 41.48V39.16C172.15 33.36 168.86 30.46 162.29 30.46C157.52 30.46 153.26 31.23 149.52 32.78L147.1 22.33C151.74 20.4 157.32 19.43 163.83 19.43C170.86 19.43 176.16 21.2 179.74 24.75C183.32 28.3 185.11 33.39 185.11 40.03V66.92H185.1Z" fill="#264A9F"/>
<path d="M203.77 32.2V70.02H190.52V23.69C197.03 20.85 204.29 19.43 212.28 19.43C217.95 19.43 222.5 20.75 225.92 23.39C231.21 20.75 236.46 19.43 241.68 19.43C248.51 19.43 253.78 21.16 257.49 24.6C261.2 28.05 263.05 32.93 263.05 39.25V70H249.8V40.21C249.8 33.7 246.9 30.44 241.1 30.44C237.88 30.44 234.88 31.21 232.11 32.76C232.88 35.4 233.27 38.43 233.27 41.85V69.99H220.31V40.2C220.31 36.91 219.62 34.46 218.23 32.85C216.84 31.24 214.63 30.43 211.61 30.43C208.9 30.43 206.29 31.01 203.78 32.17" fill="#264A9F"/>
<path d="M288.58 61.6C291.42 61.6 293.67 61.15 295.35 60.25V49.9C292.97 49.38 290.68 49.13 288.49 49.13C283.2 49.13 280.56 51.23 280.56 55.42C280.56 59.61 283.23 61.61 288.59 61.61M308.31 66.92C302.76 69.76 295.74 71.18 287.23 71.18C280.85 71.18 275.93 69.78 272.48 66.97C269.03 64.17 267.31 60.51 267.31 55.99C267.31 51.47 269.08 47.58 272.63 44.87C276.18 42.16 280.88 40.78 286.75 40.71C289.27 40.71 292.13 40.97 295.36 41.48V39.16C295.36 33.36 292.07 30.46 285.5 30.46C280.73 30.46 276.47 31.23 272.73 32.78L270.31 22.33C274.95 20.4 280.53 19.43 287.04 19.43C294.07 19.43 299.37 21.2 302.95 24.75C306.53 28.3 308.32 33.39 308.32 40.03V66.92H308.31Z" fill="#264A9F"/>
<path d="M326.59 45.55C326.59 50.26 327.7 53.87 329.93 56.38C332.15 58.89 335.23 60.15 339.17 60.15C341.69 60.15 343.72 59.73 345.26 58.89V31.42C343.33 30.78 341.59 30.45 340.04 30.45C335.65 30.45 332.32 31.72 330.03 34.27C327.74 36.82 326.6 40.57 326.6 45.54M358.51 67.21C352.9 69.86 346.48 71.18 339.26 71.18C331.07 71.18 324.64 68.94 319.97 64.46C315.29 59.98 312.96 53.87 312.96 46.13C312.96 38.39 315.36 31.61 320.17 26.74C324.97 21.87 331.34 19.44 339.27 19.44C341.14 19.44 343.14 19.67 345.26 20.12V0.680023L358.51 0V67.21Z" fill="#264A9F"/>
<path d="M7.40997 103.57C5.02997 103.57 3.19998 102.84 1.91998 101.37C0.639983 99.9 0 97.91 0 95.39C0 92.87 0.629994 90.77 1.89999 89.22C3.16999 87.67 4.99997 86.89 7.40997 86.89C8.70997 86.89 10.02 87.16 11.32 87.7L10.77 89.77C9.41999 89.28 8.30999 89.03 7.42999 89.03C5.73999 89.03 4.49 89.6 3.69 90.74C2.88 91.88 2.47998 93.42 2.47998 95.36C2.47998 97.3 2.9 98.77 3.72 99.83C4.55 100.89 5.81 101.42 7.5 101.42C8.65 101.42 9.80998 101.13 10.98 100.54L11.46 102.63C10.26 103.25 8.90997 103.55 7.40997 103.55" fill="#264A9F"/>
<path d="M16.69 86.62V99.56C16.69 100.27 16.8 100.79 17.01 101.11C17.22 101.44 17.58 101.61 18.09 101.61C18.35 101.61 18.57 101.59 18.76 101.54L18.94 103.4C18.51 103.51 18.07 103.56 17.63 103.56C15.45 103.56 14.36 102.23 14.36 99.58V86.75L16.69 86.61V86.62Z" fill="#264A9F"/>
<path d="M23.0699 97.45C23.0699 98.74 23.33 99.76 23.86 100.5C24.39 101.24 25.15 101.62 26.15 101.62C27.15 101.62 27.95 101.25 28.46 100.51C28.98 99.77 29.2299 98.75 29.2299 97.45C29.2299 96.15 28.97 95.15 28.45 94.41C27.93 93.67 27.16 93.3 26.15 93.3C25.14 93.3 24.39 93.67 23.86 94.42C23.33 95.17 23.0699 96.17 23.0699 97.45ZM31.6299 97.45C31.6299 99.31 31.14 100.79 30.17 101.91C29.2 103.02 27.86 103.58 26.15 103.58C24.44 103.58 23.1299 103.02 22.1599 101.91C21.1799 100.8 20.7 99.31 20.7 97.45C20.7 95.59 21.1899 94.13 22.1599 93.02C23.1399 91.91 24.47 91.35 26.15 91.35C27.83 91.35 29.19 91.91 30.17 93.02C31.15 94.13 31.6299 95.61 31.6299 97.45Z" fill="#264A9F"/>
<path d="M44.45 102.47C42.94 103.21 41.25 103.58 39.36 103.58C36.21 103.58 34.64 102.08 34.64 99.07V91.63H36.97V99.07C36.97 100.78 37.7799 101.63 39.4099 101.63C40.4199 101.63 41.3299 101.42 42.1299 101.01V91.64H44.45V102.49V102.47Z" fill="#264A9F"/>
<path d="M49.96 97.56C49.96 98.85 50.28 99.85 50.93 100.55C51.58 101.26 52.45 101.61 53.55 101.61C54.37 101.61 55.03 101.47 55.53 101.17V93.66C54.96 93.41 54.39 93.29 53.83 93.29C52.57 93.29 51.61 93.66 50.95 94.39C50.29 95.12 49.96 96.18 49.96 97.54M57.86 102.6C56.69 103.24 55.27 103.57 53.58 103.57C51.74 103.57 50.28 103.05 49.2 101.99C48.13 100.94 47.59 99.49 47.59 97.65C47.59 95.81 48.1399 94.2 49.2299 93.06C50.32 91.92 51.81 91.35 53.72 91.35C54.34 91.35 54.9399 91.44 55.5399 91.62V86.76L57.87 86.65V102.61L57.86 102.6Z" fill="#264A9F"/>
<path d="M69.89 87.18H67.5V103.3H69.89V87.18Z" fill="#264A9F"/>
<path d="M76.23 103.29H73.9V92.42C75.44 91.7 77.11 91.34 78.92 91.34C80.52 91.34 81.74 91.73 82.58 92.5C83.42 93.28 83.85 94.37 83.85 95.78V103.29H81.52V95.95C81.52 94.18 80.65 93.3 78.92 93.3C77.92 93.3 77.02 93.5 76.23 93.9V103.29Z" fill="#264A9F"/>
<path d="M87.95 103.29V93.5H86.29V91.61H87.95V90.67C87.95 89.35 88.26 88.31 88.88 87.56C89.5 86.81 90.44 86.43 91.7 86.43C92.28 86.43 92.97 86.52 93.77 86.71L93.38 88.55C92.76 88.44 92.33 88.39 92.07 88.39C90.87 88.39 90.28 89.13 90.28 90.62V91.61H93.23V93.5H90.28V103.29H87.95Z" fill="#264A9F"/>
<path d="M95.83 92.45C97.15 91.72 98.76 91.35 100.67 91.35C101.27 91.35 101.81 91.4 102.3 91.51L101.98 93.47C101.66 93.36 101.27 93.31 100.83 93.31C99.8 93.31 98.91 93.51 98.16 93.91V103.3H95.83V92.45Z" fill="#264A9F"/>
<path d="M108.61 101.82C109.55 101.82 110.29 101.66 110.84 101.34V98.32C110.1 98.13 109.38 98.04 108.68 98.04C107.02 98.04 106.19 98.68 106.19 99.97C106.19 101.26 107 101.81 108.61 101.81M113.12 102.51C111.88 103.22 110.3 103.57 108.4 103.57C106.94 103.57 105.82 103.25 105.04 102.6C104.26 101.96 103.87 101.11 103.87 100.07C103.87 98.92 104.28 98.04 105.11 97.42C105.94 96.81 107.04 96.5 108.4 96.5C109.28 96.5 110.09 96.58 110.84 96.75V95.78C110.84 94.12 109.94 93.29 108.15 93.29C107.03 93.29 106 93.48 105.07 93.86L104.61 91.99C105.69 91.55 106.94 91.32 108.39 91.32C109.96 91.32 111.14 91.71 111.94 92.5C112.74 93.29 113.14 94.41 113.14 95.88V102.49L113.12 102.51Z" fill="#264A9F"/>
<path d="M123.71 91.97L123.43 93.88C122.16 93.5 121.13 93.31 120.35 93.31C118.97 93.31 118.28 93.78 118.28 94.74C118.28 95.22 118.45 95.57 118.8 95.8C119.15 96.03 119.72 96.27 120.54 96.51C121.91 96.89 122.89 97.35 123.51 97.87C124.12 98.39 124.43 99.14 124.43 100.1C124.43 101.24 124.01 102.1 123.19 102.69C122.36 103.28 121.26 103.58 119.9 103.58C118.38 103.58 117.05 103.34 115.92 102.87L116.27 100.91C117.5 101.39 118.7 101.62 119.89 101.62C120.58 101.62 121.13 101.49 121.54 101.23C121.94 100.97 122.15 100.61 122.15 100.15C122.15 99.69 121.95 99.32 121.56 99.08C121.17 98.84 120.43 98.57 119.36 98.26C118.27 97.94 117.44 97.51 116.86 96.99C116.28 96.47 116 95.73 116 94.78C116 93.67 116.37 92.83 117.11 92.24C117.85 91.65 118.88 91.35 120.22 91.35C121.56 91.35 122.76 91.56 123.74 91.97" fill="#264A9F"/>
<path d="M132.97 103.34C132.36 103.49 131.73 103.57 131.1 103.57C128.61 103.57 127.37 102.21 127.37 99.5V93.51H125.71V91.62H127.37V88.95L129.7 88.84V91.63H132.58V93.52H129.7V99.48C129.7 100.91 130.3 101.62 131.49 101.62C131.98 101.62 132.43 101.57 132.83 101.46L132.97 103.35V103.34Z" fill="#264A9F"/>
<path d="M135.52 92.45C136.84 91.72 138.45 91.35 140.36 91.35C140.96 91.35 141.5 91.4 141.99 91.51L141.67 93.47C141.35 93.36 140.96 93.31 140.52 93.31C139.49 93.31 138.6 93.51 137.85 93.91V103.3H135.52V92.45Z" fill="#264A9F"/>
<path d="M154.06 102.47C152.55 103.21 150.86 103.58 148.97 103.58C145.82 103.58 144.25 102.08 144.25 99.07V91.63H146.58V99.07C146.58 100.78 147.39 101.63 149.02 101.63C150.03 101.63 150.94 101.42 151.74 101.01V91.64H154.07V102.49L154.06 102.47Z" fill="#264A9F"/>
<path d="M162.88 91.34C164.14 91.34 165.27 91.57 166.27 92.03L165.81 93.9C164.86 93.5 163.94 93.3 163.05 93.3C161.94 93.3 161.09 93.67 160.48 94.42C159.87 95.16 159.57 96.18 159.57 97.47C159.57 98.76 159.88 99.85 160.51 100.56C161.14 101.27 162.06 101.62 163.27 101.62C164.14 101.62 165.03 101.41 165.92 100.98L166.33 102.87C165.41 103.35 164.34 103.58 163.11 103.58C161.24 103.58 159.78 103.05 158.75 101.98C157.71 100.91 157.2 99.43 157.2 97.52C157.2 95.61 157.7 94.15 158.71 93.03C159.71 91.91 161.11 91.35 162.89 91.35" fill="#264A9F"/>
<path d="M175.04 103.34C174.43 103.49 173.8 103.57 173.17 103.57C170.68 103.57 169.44 102.21 169.44 99.5V93.51H167.78V91.62H169.44V88.95L171.77 88.84V91.63H174.65V93.52H171.77V99.48C171.77 100.91 172.37 101.62 173.57 101.62C174.06 101.62 174.51 101.57 174.91 101.46L175.05 103.35L175.04 103.34Z" fill="#264A9F"/>
<path d="M187.22 102.47C185.71 103.21 184.02 103.58 182.13 103.58C178.98 103.58 177.41 102.08 177.41 99.07V91.63H179.74V99.07C179.74 100.78 180.55 101.63 182.18 101.63C183.19 101.63 184.1 101.42 184.9 101.01V91.64H187.23V102.49L187.22 102.47Z" fill="#264A9F"/>
<path d="M191.11 92.45C192.43 91.72 194.04 91.35 195.95 91.35C196.55 91.35 197.09 91.4 197.58 91.51L197.26 93.47C196.94 93.36 196.55 93.31 196.11 93.31C195.08 93.31 194.19 93.51 193.44 93.91V103.3H191.11V92.45Z" fill="#264A9F"/>
<path d="M204.53 93.25C203.64 93.25 202.93 93.54 202.4 94.11C201.87 94.68 201.55 95.48 201.44 96.49H207.08C207.1 96.4 207.1 96.28 207.1 96.12C207.1 95.29 206.88 94.61 206.44 94.06C206 93.51 205.36 93.24 204.52 93.24M209.07 102.77C207.92 103.31 206.6 103.58 205.11 103.58C203.25 103.58 201.77 103.04 200.68 101.96C199.58 100.88 199.03 99.38 199.03 97.46C199.03 95.65 199.53 94.18 200.53 93.05C201.53 91.92 202.86 91.36 204.54 91.36C206.03 91.36 207.21 91.84 208.07 92.79C208.94 93.74 209.37 94.97 209.37 96.47C209.37 96.92 209.34 97.43 209.28 98.01H201.43C201.66 100.4 202.96 101.6 205.32 101.6C206.44 101.6 207.56 101.36 208.68 100.89L209.07 102.78V102.77Z" fill="#264A9F"/>
<path d="M223.11 89.25H220.65V101.22H223.11C224.94 101.22 226.31 100.69 227.22 99.63C228.13 98.57 228.59 97.1 228.59 95.21C228.59 93.32 228.14 91.88 227.23 90.83C226.32 89.78 224.95 89.25 223.11 89.25ZM218.26 103.29V87.17H223.19C225.64 87.17 227.58 87.89 228.99 89.33C230.4 90.77 231.11 92.73 231.11 95.2C231.11 97.67 230.4 99.66 228.98 101.11C227.56 102.56 225.63 103.29 223.19 103.29H218.26Z" fill="#264A9F"/>
<path d="M238.98 93.25C238.09 93.25 237.38 93.54 236.85 94.11C236.32 94.68 236 95.48 235.89 96.49H241.53C241.55 96.4 241.55 96.28 241.55 96.12C241.55 95.29 241.33 94.61 240.89 94.06C240.45 93.51 239.81 93.24 238.97 93.24M243.51 102.77C242.36 103.31 241.04 103.58 239.55 103.58C237.69 103.58 236.22 103.04 235.12 101.96C234.02 100.88 233.47 99.38 233.47 97.46C233.47 95.65 233.97 94.18 234.97 93.05C235.97 91.92 237.3 91.36 238.98 91.36C240.47 91.36 241.65 91.84 242.51 92.79C243.38 93.74 243.81 94.97 243.81 96.47C243.81 96.92 243.78 97.43 243.72 98.01H235.87C236.1 100.4 237.4 101.6 239.76 101.6C240.88 101.6 242 101.36 243.12 100.89L243.51 102.78V102.77Z" fill="#264A9F"/>
<path d="M245.89 91.62H248.24C248.59 94.98 249.59 98.23 251.23 101.36C252.93 98.21 253.94 94.97 254.25 91.62H256.58C256.3 93.8 255.85 95.77 255.23 97.54C254.61 99.3 253.71 101.22 252.52 103.3H249.94C248.71 101.2 247.78 99.27 247.15 97.51C246.52 95.75 246.1 93.79 245.88 91.63" fill="#264A9F"/>
<path d="M263.94 93.25C263.05 93.25 262.34 93.54 261.81 94.11C261.28 94.68 260.96 95.48 260.85 96.49H266.49C266.51 96.4 266.51 96.28 266.51 96.12C266.51 95.29 266.29 94.61 265.85 94.06C265.41 93.51 264.77 93.24 263.93 93.24M268.48 102.77C267.33 103.31 266.01 103.58 264.52 103.58C262.66 103.58 261.19 103.04 260.09 101.96C258.99 100.88 258.44 99.38 258.44 97.46C258.44 95.65 258.94 94.18 259.94 93.05C260.94 91.92 262.27 91.36 263.95 91.36C265.44 91.36 266.62 91.84 267.48 92.79C268.35 93.74 268.78 94.97 268.78 96.47C268.78 96.92 268.75 97.43 268.69 98.01H260.84C261.07 100.4 262.37 101.6 264.73 101.6C265.85 101.6 266.97 101.36 268.09 100.89L268.48 102.78V102.77Z" fill="#264A9F"/>
<path d="M274.16 86.62V99.56C274.16 100.27 274.27 100.79 274.48 101.11C274.69 101.44 275.05 101.61 275.56 101.61C275.82 101.61 276.04 101.59 276.23 101.54L276.41 103.4C275.98 103.51 275.54 103.56 275.1 103.56C272.92 103.56 271.83 102.23 271.83 99.58V86.75L274.16 86.61V86.62Z" fill="#264A9F"/>
<path d="M280.54 97.45C280.54 98.74 280.8 99.76 281.33 100.5C281.86 101.24 282.62 101.62 283.62 101.62C284.62 101.62 285.42 101.25 285.93 100.51C286.45 99.77 286.7 98.75 286.7 97.45C286.7 96.15 286.44 95.15 285.92 94.41C285.4 93.67 284.63 93.3 283.62 93.3C282.61 93.3 281.86 93.67 281.33 94.42C280.8 95.17 280.54 96.17 280.54 97.45ZM289.11 97.45C289.11 99.31 288.62 100.79 287.65 101.91C286.68 103.02 285.34 103.58 283.63 103.58C281.92 103.58 280.61 103.02 279.64 101.91C278.66 100.8 278.18 99.31 278.18 97.45C278.18 95.59 278.67 94.13 279.64 93.02C280.62 91.91 281.95 91.35 283.63 91.35C285.31 91.35 286.67 91.91 287.65 93.02C288.63 94.13 289.11 95.61 289.11 97.45Z" fill="#264A9F"/>
<path d="M294.56 93.78V101.1C295.27 101.44 295.93 101.61 296.56 101.61C298.91 101.61 300.08 100.17 300.08 97.28C300.08 96.07 299.8 95.1 299.24 94.38C298.68 93.66 297.82 93.3 296.67 93.3C295.95 93.3 295.24 93.46 294.55 93.78M296.8 91.34C298.61 91.34 300.02 91.87 301.01 92.93C302.01 93.99 302.51 95.42 302.51 97.21C302.51 99.13 302.02 100.66 301.05 101.81C300.07 102.96 298.69 103.54 296.89 103.54C296.06 103.54 295.29 103.39 294.56 103.08V107.57H292.23V92.37C293.64 91.68 295.16 91.33 296.79 91.33" fill="#264A9F"/>
<path d="M307.94 93.9V103.29H305.61V92.42C307.15 91.7 308.79 91.34 310.54 91.34C311.94 91.34 313.04 91.69 313.83 92.4C315.1 91.69 316.42 91.34 317.77 91.34C319.32 91.34 320.5 91.73 321.3 92.51C322.11 93.29 322.51 94.38 322.51 95.78V103.29H320.19V95.94C320.19 94.17 319.35 93.29 317.68 93.29C316.65 93.29 315.73 93.56 314.92 94.1C315.12 94.68 315.22 95.38 315.22 96.2V103.29H312.94V95.94C312.94 94.17 312.11 93.29 310.45 93.29C309.55 93.29 308.71 93.49 307.94 93.89" fill="#264A9F"/>
<path d="M331.04 93.25C330.15 93.25 329.44 93.54 328.91 94.11C328.38 94.68 328.06 95.48 327.95 96.49H333.59C333.61 96.4 333.61 96.28 333.61 96.12C333.61 95.29 333.39 94.61 332.95 94.06C332.51 93.51 331.87 93.24 331.03 93.24M335.57 102.77C334.42 103.31 333.1 103.58 331.61 103.58C329.75 103.58 328.27 103.04 327.18 101.96C326.08 100.88 325.53 99.38 325.53 97.46C325.53 95.65 326.03 94.18 327.03 93.05C328.03 91.92 329.36 91.36 331.04 91.36C332.53 91.36 333.71 91.84 334.57 92.79C335.44 93.74 335.87 94.97 335.87 96.47C335.87 96.92 335.84 97.43 335.78 98.01H327.93C328.16 100.4 329.46 101.6 331.82 101.6C332.94 101.6 334.06 101.36 335.18 100.89L335.57 102.78V102.77Z" fill="#264A9F"/>
<path d="M341.31 103.29H338.98V92.42C340.52 91.7 342.19 91.34 344 91.34C345.6 91.34 346.82 91.73 347.66 92.5C348.5 93.28 348.93 94.37 348.93 95.78V103.29H346.6V95.95C346.6 94.18 345.73 93.3 344 93.3C343 93.3 342.1 93.5 341.31 93.9V103.29Z" fill="#264A9F"/>
<path d="M358.51 103.34C357.9 103.49 357.27 103.57 356.64 103.57C354.15 103.57 352.91 102.21 352.91 99.5V93.51H351.25V91.62H352.91V88.95L355.23 88.84V91.63H358.11V93.52H355.23V99.48C355.23 100.91 355.83 101.62 357.03 101.62C357.52 101.62 357.97 101.57 358.37 101.46L358.51 103.35V103.34Z" fill="#264A9F"/>
</svg>
