<svg width="306" height="306" viewBox="0 0 306 306" fill="none" xmlns="http://www.w3.org/2000/svg">
<path d="M113.713 211.273L211.263 113.722C232.813 92.1725 267.753 92.1725 289.303 113.722C310.853 135.272 310.853 170.213 289.303 191.763L191.753 289.312C170.203 310.863 135.263 310.863 113.713 289.312C92.1625 267.762 92.1625 232.823 113.713 211.273Z" fill="#264A9F"/>
<path d="M113.712 16.1625C102.932 26.9425 97.5525 41.0625 97.5525 55.1825V250.293C97.5525 264.413 102.942 278.533 113.712 289.312C135.262 310.862 170.202 310.862 191.753 289.312C202.533 278.533 207.912 264.413 207.912 250.293V55.1825C207.912 41.0625 202.523 26.9425 191.753 16.1625C170.202 -5.3875 135.262 -5.3875 113.712 16.1625Z" fill="#4272B8"/>
<path d="M113.712 289.312L16.1625 191.763C-5.3875 170.213 -5.3875 135.272 16.1625 113.722C37.7125 92.1725 72.6525 92.1725 94.2025 113.722L191.753 211.273C213.303 232.823 213.303 267.762 191.753 289.312C170.203 310.863 135.262 310.863 113.712 289.312Z" fill="#54BA60"/>
</svg>
